<?xml version="1.0" encoding="UTF-8"?>
<mxGraphModel dx="1024" dy="768" grid="1" gridSize="10" guides="1" tooltips="1" connect="1" arrows="1" fold="1" page="1" pageScale="1" pageWidth="827" pageHeight="1169" math="0" shadow="0">
  <root>
    <mxCell id="0" />
    <mxCell id="1" parent="0" />
    
    <!-- Classe AparelhoEletronico -->
    <mxCell id="2" value="AparelhoEletronico" style="shape=rectangle;fillColor=#ffffff;strokeColor=#000000;" vertex="1" parent="1">
      <mxGeometry x="50" y="50" width="200" height="150" as="geometry" />
    </mxCell>
    
    <!-- Classe NavegadorInternet -->
    <mxCell id="3" value="NavegadorInternet" style="shape=rectangle;fillColor=#ffffff;strokeColor=#000000;" vertex="1" parent="1">
      <mxGeometry x="300" y="50" width="200" height="150" as="geometry" />
    </mxCell>
    
    <!-- Classe ReprodutorMusical -->
    <mxCell id="4" value="ReprodutorMusical" style="shape=rectangle;fillColor=#ffffff;strokeColor=#000000;" vertex="1" parent="1">
      <mxGeometry x="50" y="250" width="200" height="150" as="geometry" />
    </mxCell>
    
    <!-- Relacionamento NavegadorInternet - AparelhoEletronico -->
    <mxCell id="5" style="edgeStyle=elbowEdgeStyle;rounded=1;" edge="1" parent="1" source="3" target="2">
      <mxGeometry relative="1" as="geometry" />
    </mxCell>
    
    <!-- Relacionamento ReprodutorMusical - AparelhoEletronico -->
    <mxCell id="6" style="edgeStyle=elbowEdgeStyle;rounded=1;" edge="1" parent="1" source="4" target="2">
      <mxGeometry relative="1" as="geometry" />
    </mxCell>
  </root>
</mxGraphModel>
